<svg width="33" height="33" viewBox="0 0 33 33" fill="none" xmlns="http://www.w3.org/2000/svg">
<path fill-rule="evenodd" clip-rule="evenodd" d="M28.05 0C30.7838 0 33 2.21512 33 4.94761V28.0365C33 30.769 30.7838 32.9841 28.05 32.9841H4.95C2.21619 32.9841 0 30.769 0 28.0365V4.94761C0 2.21512 2.21619 0 4.95 0H28.05ZM3.3 28.0365C3.3 28.9473 4.03873 29.6857 4.95 29.6857H28.05C28.9613 29.6857 29.7 28.9473 29.7 28.0365V19.7905H24.585C23.8445 23.4367 20.6969 26.2093 16.8722 26.379L16.5 26.3873C12.6334 26.3873 9.38815 23.7286 8.49415 20.1405L8.41503 19.7905H3.3V28.0365ZM28.05 3.29841H4.95C4.03873 3.29841 3.3 4.03678 3.3 4.94761V16.492H9.9C10.7462 16.492 11.4436 17.1287 11.5389 17.9489L11.55 18.1413C11.55 20.8737 13.7662 23.0889 16.5 23.0889C19.1362 23.0889 21.291 21.0291 21.4416 18.432L21.4611 17.9489C21.5491 17.1918 22.1501 16.5911 22.9076 16.5031L23.1 16.492H29.7V4.94761C29.7 4.03678 28.9613 3.29841 28.05 3.29841Z" fill="#808080"/>
</svg>
