<svg width="33" height="33" viewBox="0 0 33 33" fill="none" xmlns="http://www.w3.org/2000/svg">
<path fill-rule="evenodd" clip-rule="evenodd" d="M14.5614 0H18.4369C21.2011 0.00625289 21.8358 0.0305855 23.3025 0.097473C25.0588 0.177541 26.2583 0.456374 27.3079 0.864114C28.393 1.28554 29.3132 1.84949 30.2306 2.76638C31.1479 3.68334 31.7121 4.60311 32.1338 5.68767C32.5417 6.73674 32.8207 7.93568 32.9008 9.69116C32.9784 11.3917 32.9987 11.9732 33 16.0562V16.9263C32.9987 21.0092 32.9784 21.5907 32.9008 23.2912C32.8207 25.0467 32.5417 26.2456 32.1338 27.2947C31.7121 28.3793 31.1479 29.299 30.2306 30.216C29.3132 31.1329 28.393 31.6968 27.3079 32.1183C26.2583 32.526 25.0588 32.8048 23.3025 32.8849C21.6011 32.9625 21.0193 32.9828 16.9344 32.9841H16.0639C11.979 32.9828 11.3972 32.9625 9.69583 32.8849C7.9395 32.8048 6.73999 32.526 5.69041 32.1183C4.60533 31.6968 3.68511 31.1329 2.76771 30.216C1.85038 29.299 1.28616 28.3793 0.864531 27.2947C0.456594 26.2456 0.177627 25.0467 0.0975199 23.2912C0.0306003 21.8253 0.00625591 21.1909 0 18.428V14.5544C0.00625591 11.7915 0.0306003 11.1571 0.0975199 9.69116C0.177627 7.93568 0.456594 6.73674 0.864531 5.68767C1.28616 4.60311 1.85038 3.68334 2.76771 2.76638C3.68511 1.84949 4.60533 1.28554 5.69041 0.864114C6.73999 0.456374 7.9395 0.177541 9.69583 0.097473C11.1625 0.0305855 11.7972 0.00625289 14.5614 0H18.4369H14.5614ZM17.7099 2.96794H15.2892C11.977 2.97138 11.3977 2.99215 9.83172 3.06357C8.2229 3.13689 7.34918 3.40558 6.76774 3.63145C5.99752 3.93064 5.44784 4.28803 4.87045 4.86521C4.293 5.44232 3.93543 5.99173 3.63609 6.76158C3.41012 7.34275 3.1413 8.21604 3.06794 9.82409C2.99649 11.3893 2.97571 11.9684 2.97227 15.2789V17.6985C2.97571 21.009 2.99649 21.588 3.06794 23.1532C3.1413 24.7613 3.41012 25.6346 3.63609 26.2157C3.93543 26.9856 4.29306 27.535 4.87045 28.1121C5.44784 28.6893 5.99752 29.0467 6.76774 29.3459C7.34918 29.5717 8.2229 29.8404 9.83172 29.9138C11.5715 29.9931 12.0933 30.0099 16.4995 30.0099C20.9058 30.0099 21.4276 29.9931 23.1673 29.9138C24.7761 29.8404 25.6498 29.5717 26.2313 29.3459C27.0015 29.0467 27.5512 28.6893 28.1286 28.1121C28.706 27.535 29.0636 26.9856 29.3629 26.2157C29.5889 25.6346 29.8577 24.7613 29.9311 23.1532C30.0105 21.4141 30.0273 20.8925 30.0273 16.4887C30.0273 12.0849 30.0105 11.5632 29.9311 9.82409C29.8577 8.21604 29.5889 7.34275 29.3629 6.76158C29.0636 5.99173 28.706 5.44232 28.1286 4.86521C27.5512 4.28803 27.0015 3.93064 26.2313 3.63145C25.6498 3.40558 24.7761 3.13689 23.1673 3.06357C21.6013 2.99215 21.022 2.97138 17.7099 2.96794ZM16.4989 8.24502C21.0555 8.24502 24.7493 11.9371 24.7493 16.4915C24.7493 21.0459 21.0555 24.738 16.4989 24.738C11.9423 24.738 8.24843 21.0459 8.24843 16.4915C8.24843 11.9371 11.9423 8.24502 16.4989 8.24502ZM16.4994 11.141C13.5416 11.141 11.1438 13.5376 11.1438 16.494C11.1438 19.4504 13.5416 21.847 16.4994 21.847C19.4572 21.847 21.855 19.4504 21.855 16.494C21.855 13.5376 19.4572 11.141 16.4994 11.141ZM25.437 5.4945C26.5762 5.4945 27.4997 6.41765 27.4997 7.5564C27.4997 8.69515 26.5762 9.61824 25.437 9.61824C24.2979 9.61824 23.3745 8.69515 23.3745 7.5564C23.3745 6.41765 24.2979 5.4945 25.437 5.4945Z" fill="#808080"/>
</svg>
