<svg width="33" height="33" viewBox="0 0 33 33" fill="none" xmlns="http://www.w3.org/2000/svg">
<path fill-rule="evenodd" clip-rule="evenodd" d="M30.2432 0C31.7657 0 33 1.23282 33 2.75547V30.2286C33 31.7504 31.7666 32.9841 30.2432 32.9841H2.7568C1.23426 32.9841 0 31.7513 0 30.2286V2.75547C0 1.23367 1.23341 0 2.7568 0H30.2432ZM22.3059 12.369C19.9639 12.369 18.3614 13.4037 17.6479 14.6058L17.5312 14.8195V12.5752H13.0625V28.3801H17.875V20.7243C17.875 18.1584 18.8203 16.5264 21.0925 16.5264C22.6596 16.5264 23.3171 17.9115 23.3713 20.3809L23.375 20.7243V28.3801H28.1875V19.651C28.1875 14.9377 27.0593 12.369 22.3059 12.369ZM9.62499 12.369H4.81249V28.1739H9.62499V12.369ZM7.21875 4.12301C5.51031 4.12301 4.125 5.50766 4.125 7.21527C4.125 8.92288 5.51031 10.3075 7.21875 10.3075C8.92719 10.3075 10.3125 8.92288 10.3125 7.21527C10.3125 5.50766 8.92719 4.12301 7.21875 4.12301Z" fill="#808080"/>
</svg>
