<svg width="33" height="33" viewBox="0 0 33 33" fill="none" xmlns="http://www.w3.org/2000/svg">
<path fill-rule="evenodd" clip-rule="evenodd" d="M16.5 0C25.6127 0 33 7.38374 33 16.492C33 25.6004 25.6127 32.9841 16.5 32.9841C7.3873 32.9841 0 25.6004 0 16.492C0 7.38374 7.3873 0 16.5 0ZM16.5 3.29841C9.20984 3.29841 3.3 9.2054 3.3 16.492C3.3 23.7787 9.20984 29.6857 16.5 29.6857C23.7902 29.6857 29.7 23.7787 29.7 16.492C29.7 9.2054 23.7902 3.29841 16.5 3.29841ZM14.0314 8.47075L23.9314 15.0676C24.9587 15.6665 25.0191 17.0981 24.1127 17.795L14.0314 24.5135C12.9314 25.1548 11.55 24.3618 11.55 23.0889V9.8953C11.55 8.62246 12.9314 7.8294 14.0314 8.47075Z" fill="#808080"/>
</svg>
